<svg width="28" height="32" viewBox="0 0 28 32" fill="none" xmlns="http://www.w3.org/2000/svg">
<path d="M14 7.675C9.45625 7.675 5.7625 11.3688 5.75625 15.9125C5.75625 17.4688 6.19375 18.9875 7.01875 20.2938L7.2125 20.6063L6.38125 23.6437L9.5 22.825L9.8 23.0063C11.0625 23.7563 12.5125 24.1562 13.9937 24.1562H14C18.5375 24.1562 22.3312 20.4625 22.3312 15.9187C22.3312 13.7188 21.3813 11.65 19.825 10.0938C18.2625 8.53125 16.2 7.675 14 7.675ZM18.8438 19.45C18.6375 20.0312 17.65 20.5562 17.175 20.625C16.3875 20.7437 15.775 20.6812 14.2063 20.0063C11.725 18.9312 10.1 16.4312 9.975 16.2687C9.85 16.1062 8.9625 14.925 8.9625 13.7063C8.9625 12.4875 9.6 11.8875 9.83125 11.6375C10.0563 11.3875 10.325 11.325 10.4937 11.325C10.6562 11.325 10.825 11.325 10.9688 11.3313C11.1187 11.3375 11.325 11.275 11.525 11.7563C11.7312 12.25 12.225 13.4688 12.2875 13.5938C12.35 13.7188 12.3937 13.8625 12.3062 14.025C11.8312 14.975 11.325 14.9375 11.5813 15.375C12.5375 17.0188 13.4937 17.5875 14.95 18.3188C15.2 18.4438 15.3438 18.425 15.4875 18.2563C15.6313 18.0938 16.1062 17.5312 16.2687 17.2875C16.4312 17.0375 16.6 17.0813 16.825 17.1625C17.05 17.2438 18.2687 17.8438 18.5187 17.9688C18.7687 18.0938 18.9312 18.1562 18.9937 18.2563C19.05 18.375 19.05 18.875 18.8438 19.45ZM25 2H3C1.34375 2 0 3.34375 0 5V27C0 28.6562 1.34375 30 3 30H25C26.6562 30 28 28.6562 28 27V5C28 3.34375 26.6562 2 25 2ZM13.9937 25.825C12.3312 25.825 10.7 25.4062 9.25625 24.6187L4 26L5.40625 20.8625C4.5375 19.3625 4.08125 17.6562 4.08125 15.9062C4.0875 10.4438 8.53125 6 13.9937 6C16.6437 6 19.1313 7.03125 21.0063 8.90625C22.875 10.7812 24 13.2687 24 15.9187C24 21.3813 19.4562 25.825 13.9937 25.825Z" fill="#FEF9F9"/>
</svg>
