<svg width="33" height="33" viewBox="0 0 33 33" fill="none" xmlns="http://www.w3.org/2000/svg">
<path fill-rule="evenodd" clip-rule="evenodd" d="M21.965 30.75V19.907H25.605L26.1496 15.6818H21.9636V12.984C21.9636 11.7604 22.3038 10.926 24.0594 10.926H26.2966V7.146C25.2131 7.0307 24.1242 6.97462 23.0346 6.978C19.809 6.978 17.6012 8.9478 17.6012 12.564V15.6818H13.95V19.907H17.5998V30.75H4.2956C3.4416 30.75 2.75 30.0584 2.75 29.2044V4.2956C2.75 3.4416 3.4416 2.75 4.2956 2.75H29.2044C30.0584 2.75 30.75 3.4416 30.75 4.2956V29.2044C30.75 30.0584 30.0584 30.75 29.2044 30.75H21.965Z" fill="white"/>
</svg>
