<svg width="33" height="33" viewBox="0 0 33 33" fill="none" xmlns="http://www.w3.org/2000/svg">
<path opacity="0.5" d="M28.787 10.4005C28.7766 9.44312 28.6012 8.49469 28.2686 7.59688C28.0269 6.94087 27.6412 6.34744 27.1398 5.86025C26.6525 5.35927 26.059 4.97397 25.4031 4.73275C24.5051 4.4006 23.5569 4.2248 22.5995 4.213C21.0073 4.1415 20.5301 4.125 16.5 4.125C12.4712 4.125 11.9914 4.13875 10.4005 4.213C9.44312 4.22343 8.49469 4.39879 7.59688 4.73137C6.94066 4.97266 6.34714 5.35848 5.86025 5.86025C5.36007 6.34871 4.97492 6.94241 4.73275 7.59825C4.4008 8.49581 4.22501 9.4436 4.213 10.4005C4.1415 11.9941 4.125 12.4713 4.125 16.5014C4.125 20.5315 4.13875 21.01 4.213 22.6009C4.22387 23.5583 4.3997 24.5068 4.73275 25.4045C4.97337 26.059 5.35975 26.653 5.86162 27.1384C6.34897 27.6399 6.94233 28.0261 7.59825 28.2686C8.49475 28.6014 9.4435 28.7774 10.4005 28.787C11.9914 28.8612 12.4712 28.875 16.5 28.875C20.5287 28.875 21.01 28.8612 22.5995 28.787C23.5569 28.7766 24.5053 28.6012 25.4031 28.2686C26.0542 28.0177 26.6456 27.6332 27.1391 27.1399C27.6326 26.6466 28.0174 26.0555 28.2686 25.4045C28.6006 24.506 28.7759 23.5573 28.787 22.5995C28.8612 21.01 28.875 20.5315 28.875 16.5C28.875 12.4685 28.8612 11.9928 28.787 10.4005Z" fill="#423F3F"/>
<path d="M25.5567 10.5265C25.3742 10.053 25.0945 9.62302 24.7357 9.26422C24.3768 8.90541 23.9468 8.62575 23.4733 8.44324C22.8202 8.20181 22.1305 8.07389 21.4342 8.06501C20.2758 8.01182 19.9271 8 16.997 8C14.067 8 13.7198 8.01182 12.5643 8.06501C11.868 8.07248 11.1782 8.19993 10.5252 8.44176C9.56625 8.81113 8.8112 9.56759 8.4418 10.525C8.19947 11.1795 8.0724 11.8695 8.06354 12.5639C8.01034 13.7222 8 14.0694 8 17.0007C8 19.932 8.01034 20.2807 8.06354 21.4376C8.07092 22.1335 8.19948 22.8234 8.44032 23.4765C8.62292 23.9499 8.90264 24.3798 9.26146 24.7386C9.62028 25.0974 10.0503 25.3771 10.5237 25.5597C11.1783 25.8005 11.8683 25.9291 12.5628 25.9365C13.7197 25.9897 14.067 26 16.9985 26C19.9301 26 20.2788 25.9897 21.4357 25.9365C22.1321 25.9284 22.8219 25.8005 23.4748 25.5582C23.9483 25.3756 24.3782 25.096 24.7371 24.7372C25.0959 24.3784 25.3756 23.9484 25.5582 23.475C25.8005 22.8234 25.9276 22.1335 25.9365 21.4361C25.9897 20.2792 26 19.932 26 17.0007C26 14.0694 25.9897 13.7222 25.9365 12.5654C25.9284 11.8691 25.8005 11.1793 25.5582 10.5265H25.5567ZM16.997 22.6373C16.2568 22.6373 15.5238 22.4915 14.8399 22.2082C14.1559 21.925 13.5345 21.5098 13.0111 20.9864C12.4876 20.463 12.0724 19.8416 11.7891 19.1578C11.5058 18.4739 11.36 17.7409 11.36 17.0007C11.36 16.2605 11.5058 15.5276 11.7891 14.8437C12.0724 14.1599 12.4876 13.5385 13.0111 13.0151C13.5345 12.4917 14.1559 12.0765 14.8399 11.7933C15.5238 11.51 16.2568 11.3642 16.997 11.3642C18.4921 11.3642 19.9259 11.958 20.983 13.0151C22.0402 14.0722 22.634 15.5058 22.634 17.0007C22.634 18.4956 22.0402 19.9293 20.983 20.9864C19.9259 22.0434 18.4921 22.6373 16.997 22.6373ZM22.8572 12.4575C22.5154 12.4461 22.1915 12.3023 21.9538 12.0565C21.7162 11.8108 21.5833 11.4822 21.5833 11.1404C21.5833 10.7985 21.7162 10.47 21.9538 10.2242C22.1915 9.97843 22.5154 9.83464 22.8572 9.8232H22.8586C23.2004 9.83364 23.5248 9.9765 23.7632 10.2216C24.0016 10.4667 24.1354 10.7949 24.1364 11.1368C24.1373 11.4787 24.0054 11.8076 23.7683 12.054C23.5313 12.3005 23.2078 12.4452 22.866 12.4575H22.8572Z" fill="white"/>
<path d="M17 13C16.2089 13 15.4355 13.2346 14.7777 13.6741C14.1199 14.1136 13.6072 14.7384 13.3045 15.4693C13.0017 16.2002 12.9225 17.0044 13.0769 17.7804C13.2312 18.5563 13.6122 19.269 14.1716 19.8284C14.731 20.3878 15.4437 20.7688 16.2196 20.9231C16.9956 21.0775 17.7998 20.9983 18.5307 20.6955C19.2616 20.3928 19.8864 19.8801 20.3259 19.2223C20.7654 18.5645 21 17.7911 21 17C21 15.9394 20.5788 14.9222 19.829 14.1721C19.0792 13.422 18.0622 13.0004 17.0016 13H17Z" fill="white"/>
<path d="M30.902 10.098C30.8894 9.01554 30.6905 7.94334 30.314 6.9284C30.0401 6.18635 29.6033 5.51515 29.0358 4.9642C28.4849 4.39655 27.8137 3.95975 27.0716 3.686C26.0559 3.31031 24.9834 3.11144 23.9006 3.098C22.0988 3.0196 21.5598 3 17 3C12.443 3 11.9012 3.0168 10.1008 3.098C9.0172 3.112 7.9448 3.3094 6.9298 3.686C6.1878 3.959 5.5158 4.3958 4.9656 4.9642C4.39905 5.51597 3.96242 6.18692 3.6874 6.9284C3.31177 7.94407 3.11289 9.01658 3.0994 10.0994C3.0196 11.9012 3 12.4416 3 17.0014C3 21.5612 3.0168 22.1016 3.0994 23.902C3.1134 24.9842 3.3108 26.058 3.6874 27.073C3.9604 27.815 4.3972 28.487 4.9642 29.0358C5.51549 29.6029 6.18658 30.0397 6.9284 30.314C7.94377 30.6907 9.01647 30.8896 10.0994 30.902C11.8998 30.9846 12.4416 31 17 31C21.5598 31 22.1002 30.9832 23.902 30.902C24.9845 30.8895 26.0567 30.6906 27.0716 30.314C27.8083 30.03 28.4775 29.5949 29.0359 29.0367C29.5943 28.4785 30.0297 27.8096 30.314 27.073C30.6892 26.0566 30.888 24.9842 30.902 23.902C30.9832 22.1002 31 21.5584 31 17C31 12.4402 30.9832 11.9012 30.902 10.098ZM27.339 21.2882C27.3224 22.1514 27.1591 23.0054 26.856 23.8138C26.5887 24.5048 26.18 25.1323 25.6561 25.6561C25.1323 26.18 24.5048 26.5887 23.8138 26.856C23.0058 27.1586 22.1523 27.3219 21.2896 27.339C20.1794 27.3908 19.8252 27.402 17 27.402C14.1748 27.402 13.822 27.3894 12.7118 27.339C11.8492 27.3218 10.9957 27.1585 10.1876 26.856C9.49633 26.5889 8.86851 26.1804 8.34438 25.6565C7.82025 25.1326 7.41138 24.5049 7.144 23.8138C6.84128 23.0053 6.67796 22.1513 6.661 21.2882C6.612 20.1794 6.598 19.8252 6.598 17C6.598 14.1748 6.6106 13.8206 6.661 12.7118C6.67796 11.8487 6.84128 10.9947 7.144 10.1862C7.41131 9.49501 7.82015 8.86734 8.34429 8.34344C8.86843 7.81954 9.49629 7.41099 10.1876 7.144C10.9956 6.84144 11.8491 6.67812 12.7118 6.661C13.822 6.6092 14.1776 6.598 17.0014 6.598C19.8252 6.598 20.1794 6.6106 21.2896 6.661C22.1528 6.67774 23.0068 6.84107 23.8152 7.144C24.5059 7.41147 25.1331 7.82022 25.6568 8.34408C26.1804 8.86794 26.5889 9.49537 26.856 10.1862C27.1598 10.9954 27.3222 11.848 27.339 12.7118C27.3894 13.8206 27.402 14.1748 27.402 17C27.402 19.8252 27.3894 20.178 27.339 21.2882Z" fill="white"/>
</svg>
